<svg width="36" height="36" viewBox="0 0 36 36" fill="none" xmlns="http://www.w3.org/2000/svg">
<g clip-path="url(#clip0_77_143)">
<path d="M20.1485 15.4311L20.0915 15.4863C19.3943 16.1606 19.3756 17.2724 20.0498 17.9697L26.0845 24.2109C26.7587 24.9082 27.8705 24.9268 28.5677 24.2526L28.6247 24.1974C29.322 23.5231 29.3406 22.4113 28.6664 21.714L22.6317 15.4728C21.9575 14.7755 20.8457 14.7569 20.1485 15.4311Z" fill="url(#paint0_linear_77_143)"/>
<path d="M17.3698 17.5775L17.3127 17.6327C16.6155 18.3069 16.5968 19.4188 17.271 20.116L23.3058 26.3573C23.98 27.0545 25.0917 27.0732 25.7889 26.3989L25.846 26.3438C26.5432 25.6695 26.5618 24.5577 25.8876 23.8604L19.8529 17.6192C19.1787 16.9219 18.067 16.9032 17.3698 17.5775Z" fill="url(#paint1_linear_77_143)"/>
<path d="M14.7745 19.8666L14.7175 19.9217C14.0203 20.596 14.0016 21.7078 14.6758 22.4051L20.7105 28.6463C21.3847 29.3436 22.4965 29.3623 23.1937 28.688L23.2507 28.6328C23.948 27.9586 23.9666 26.8467 23.2924 26.1495L17.2577 19.9082C16.5835 19.211 15.4718 19.1923 14.7745 19.8666Z" fill="url(#paint2_linear_77_143)"/>
<path d="M11.8246 21.927L11.7675 21.9822C11.0703 22.6564 11.0516 23.7683 11.7258 24.4655L17.7606 30.7068C18.4348 31.404 19.5465 31.4227 20.2437 30.7484L20.3008 30.6932C20.998 30.019 21.0166 28.9072 20.3424 28.2099L14.3077 21.9686C13.6335 21.2714 12.5218 21.2527 11.8246 21.927Z" fill="url(#paint3_linear_77_143)"/>
<path d="M11.4374 8.37562C11.4374 8.37562 17.5029 7.21347 19.6658 9.15824C21.8287 11.103 28.4959 19.4477 28.4959 19.4477L17.0664 29.7272C17.0664 29.7272 5.31238 21.7506 4.98206 17.235" fill="url(#paint4_linear_77_143)"/>
<path d="M1.01758 17.4011L2.53972 18.5466C3.5161 19.2813 4.9032 19.0854 5.63789 18.1089L12.0506 9.58579C12.7853 8.60933 12.5894 7.22211 11.613 6.48736L10.0909 5.34191C9.1145 4.60716 7.7274 4.80311 6.99271 5.77957L0.579957 14.3027C-0.154733 15.2792 0.0411991 16.6664 1.01758 17.4011Z" fill="url(#paint5_linear_77_143)"/>
<path d="M23.4362 8.72152C23.4362 8.72152 21.3031 7.23317 15.8165 9.12834C14.5168 9.57484 13.4056 10.3091 13.0683 11.0632C12.3043 12.7599 13.6834 14.5161 15.5685 14.1292C18.3068 13.5636 19.5767 12.879 19.9835 13.2858C20.7475 14.0498 28.6449 21.69 28.6449 21.69C28.6449 21.69 30.8971 20.5985 31.1055 17.6615" fill="url(#paint6_linear_77_143)"/>
<path d="M25.9087 5.3562L24.3866 6.50164C23.4102 7.2364 23.2142 8.62361 23.9489 9.60008L30.3617 18.1232C31.0964 19.0997 32.4835 19.2956 33.4598 18.5609L34.982 17.4154C35.9584 16.6807 36.1543 15.2934 35.4196 14.317L29.0069 5.79386C28.2722 4.81739 26.8851 4.62145 25.9087 5.3562Z" fill="url(#paint7_linear_77_143)"/>
<path d="M19.0318 28.566C19.7645 27.8345 19.7655 26.6475 19.0341 25.9147C18.3027 25.1819 17.1157 25.1809 16.383 25.9124L14.5256 27.7667C13.7929 28.4982 13.7919 29.6852 14.5233 30.418C15.2548 31.1508 16.4417 31.1518 17.1744 30.4203L19.0318 28.566Z" fill="url(#paint8_linear_77_143)"/>
<path d="M16.1504 26.2203C16.8832 25.4888 16.8842 24.3018 16.1528 23.569C15.4213 22.8362 14.2344 22.8352 13.5017 23.5667L11.6443 25.421C10.9116 26.1525 10.9105 27.3395 11.642 28.0723C12.3734 28.8051 13.5603 28.8061 14.2931 28.0746L16.1504 26.2203Z" fill="url(#paint9_linear_77_143)"/>
<path d="M13.6114 23.5328C14.3441 22.8013 14.3451 21.6143 13.6137 20.8815C12.8823 20.1487 11.6953 20.1477 10.9626 20.8792L9.10522 22.7335C8.3725 23.465 8.37147 24.652 9.10291 25.3848C9.83435 26.1176 11.0213 26.1186 11.754 25.3871L13.6114 23.5328Z" fill="url(#paint10_linear_77_143)"/>
<path d="M11.1915 20.6715C11.9242 19.94 11.9253 18.753 11.1938 18.0202C10.4624 17.2874 9.27546 17.2864 8.54274 18.0179L6.68536 19.8722C5.95264 20.6037 5.95161 21.7907 6.68305 22.5235C7.41449 23.2563 8.60142 23.2573 9.33414 22.5258L11.1915 20.6715Z" fill="url(#paint11_linear_77_143)"/>
</g>
<defs>
<linearGradient id="paint0_linear_77_143" x1="24.8477" y1="15.5743" x2="23.2162" y2="23.9695" gradientUnits="userSpaceOnUse">
<stop stop-color="#FFA98C"/>
<stop offset="0.99" stop-color="#E96F58"/>
</linearGradient>
<linearGradient id="paint1_linear_77_143" x1="22.0647" y1="17.7228" x2="20.4403" y2="26.1119" gradientUnits="userSpaceOnUse">
<stop stop-color="#FFA98C"/>
<stop offset="0.99" stop-color="#E96F58"/>
</linearGradient>
<linearGradient id="paint2_linear_77_143" x1="19.4687" y1="20.006" x2="17.8434" y2="28.4089" gradientUnits="userSpaceOnUse">
<stop stop-color="#FFA98C"/>
<stop offset="0.99" stop-color="#E96F58"/>
</linearGradient>
<linearGradient id="paint3_linear_77_143" x1="16.5266" y1="22.0632" x2="14.9014" y2="30.4661" gradientUnits="userSpaceOnUse">
<stop stop-color="#FFA98C"/>
<stop offset="0.99" stop-color="#E96F58"/>
</linearGradient>
<linearGradient id="paint4_linear_77_143" x1="7.94857" y1="9.63456" x2="24.4394" y2="25.3302" gradientUnits="userSpaceOnUse">
<stop offset="0.59" stop-color="#F39676"/>
<stop offset="0.836538" stop-color="#D77460" stop-opacity="0"/>
</linearGradient>
<linearGradient id="paint5_linear_77_143" x1="6.32163" y1="4.72485" x2="5.60851" y2="19.0654" gradientUnits="userSpaceOnUse">
<stop stop-color="#9A7CE6"/>
<stop offset="0.99" stop-color="#6144AD"/>
</linearGradient>
<linearGradient id="paint6_linear_77_143" x1="21.9877" y1="8.16587" x2="21.9877" y2="21.6801" gradientUnits="userSpaceOnUse">
<stop stop-color="#FFD1BD"/>
<stop offset="0.99" stop-color="#FF9F8E"/>
</linearGradient>
<linearGradient id="paint7_linear_77_143" x1="29.6825" y1="4.74587" x2="30.388" y2="19.093" gradientUnits="userSpaceOnUse">
<stop stop-color="#61DFFE"/>
<stop offset="0.14" stop-color="#4EC6FD"/>
<stop offset="0.32" stop-color="#3DAFFC"/>
<stop offset="0.51" stop-color="#319EFC"/>
<stop offset="0.73" stop-color="#2A95FC"/>
<stop offset="1" stop-color="#2892FC"/>
</linearGradient>
<linearGradient id="paint8_linear_77_143" x1="15.1678" y1="25.5417" x2="15.457" y2="31.0421" gradientUnits="userSpaceOnUse">
<stop stop-color="#FFD1BD"/>
<stop offset="0.99" stop-color="#FF9F8E"/>
</linearGradient>
<linearGradient id="paint9_linear_77_143" x1="12.2769" y1="23.2022" x2="12.5661" y2="28.7026" gradientUnits="userSpaceOnUse">
<stop stop-color="#FFD1BD"/>
<stop offset="0.99" stop-color="#FF9F8E"/>
</linearGradient>
<linearGradient id="paint10_linear_77_143" x1="9.74593" y1="20.5067" x2="10.0352" y2="26.0072" gradientUnits="userSpaceOnUse">
<stop stop-color="#FFD1BD"/>
<stop offset="0.99" stop-color="#FF9F8E"/>
</linearGradient>
<linearGradient id="paint11_linear_77_143" x1="7.32665" y1="17.6463" x2="7.6159" y2="23.1467" gradientUnits="userSpaceOnUse">
<stop stop-color="#FFD1BD"/>
<stop offset="0.99" stop-color="#FF9F8E"/>
</linearGradient>
<clipPath id="clip0_77_143">
<rect width="36" height="36" fill="white"/>
</clipPath>
</defs>
</svg>
