<svg width="36" height="36" viewBox="0 0 36 36" fill="none" xmlns="http://www.w3.org/2000/svg">
<path d="M15.6041 31.0692C15.6041 32.3642 16.6768 33.4141 18.0001 33.4141C19.3233 33.4141 20.396 32.3642 20.396 31.0692C20.396 29.7741 19.3233 28.7243 18.0001 28.7243C16.6768 28.7243 15.6041 29.7741 15.6041 31.0692Z" fill="url(#paint0_linear_77_169)"/>
<path d="M29.75 14.0927C29.75 7.73746 24.4883 2.58789 18.0052 2.58789C11.5221 2.58789 6.25 7.73746 6.25 14.0927C6.25 18.4657 8.74511 22.2666 12.4199 24.2181V28.1722H23.5801V24.2181C27.2549 22.2768 29.75 18.4657 29.75 14.0927Z" fill="url(#paint1_linear_77_169)"/>
<path d="M17.2746 14.6233C17.0867 13.0601 15.7399 11.834 14.0905 11.834C12.3157 11.834 10.875 13.244 10.875 14.9809C10.875 16.7179 12.3157 18.1279 14.0905 18.1279C14.4037 18.1279 14.6855 18.0768 14.9778 17.9951V28.6927C14.9778 29.3262 15.4998 29.837 16.1471 29.837C16.7944 29.837 17.3164 29.3262 17.3164 28.6927V14.797C17.3164 14.7357 17.285 14.6744 17.2746 14.6131V14.6233ZM14.0905 15.8494C13.5998 15.8494 13.2031 15.4612 13.2031 14.9809C13.2031 14.5007 13.5998 14.1125 14.0905 14.1125C14.5811 14.1125 14.9778 14.5007 14.9778 14.9809C14.9778 15.4612 14.5811 15.8494 14.0905 15.8494Z" fill="url(#paint2_linear_77_169)"/>
<path d="M18.6943 14.8068V28.7024C18.6943 29.3359 19.2163 29.8468 19.8636 29.8468C20.5109 29.8468 21.0329 29.3359 21.0329 28.7024V18.0048C21.3147 18.0866 21.607 18.1377 21.9202 18.1377C23.695 18.1377 25.1357 16.7277 25.1357 14.9907C25.1357 13.2537 23.695 11.8438 21.9202 11.8438C20.2707 11.8438 18.924 13.0698 18.7361 14.6331C18.7257 14.6944 18.6943 14.7455 18.6943 14.817V14.8068ZM21.0329 14.9805C21.0329 14.5003 21.4296 14.112 21.9202 14.112C22.4109 14.112 22.8076 14.5003 22.8076 14.9805C22.8076 15.4607 22.4109 15.849 21.9202 15.849C21.4296 15.849 21.0329 15.4607 21.0329 14.9805Z" fill="url(#paint3_linear_77_169)"/>
<path d="M12.3994 25.9297V28.0549C12.3994 29.9656 13.9863 31.5186 15.9385 31.5186H20.0518C22.004 31.5186 23.5909 29.9656 23.5909 28.0549V25.9297H12.3994Z" fill="url(#paint4_linear_77_169)"/>
<path d="M21.8992 8.23816C23.3295 8.66729 24.8433 10.0569 25.3026 11.6201" stroke="white" stroke-width="2.5" stroke-linecap="round" stroke-linejoin="round"/>
<defs>
<linearGradient id="paint0_linear_77_169" x1="17.9948" y1="28.7141" x2="17.9948" y2="33.4141" gradientUnits="userSpaceOnUse">
<stop stop-color="#614E90"/>
<stop offset="0.99" stop-color="#33245C"/>
</linearGradient>
<linearGradient id="paint1_linear_77_169" x1="18.0052" y1="2.58789" x2="18.0052" y2="28.162" gradientUnits="userSpaceOnUse">
<stop stop-color="#FEE058"/>
<stop offset="0.04" stop-color="#FEDA52"/>
<stop offset="0.24" stop-color="#FEC43B"/>
<stop offset="0.45" stop-color="#FEB42A"/>
<stop offset="0.69" stop-color="#FEAA21"/>
<stop offset="1" stop-color="#FEA81E"/>
</linearGradient>
<linearGradient id="paint2_linear_77_169" x1="14.0905" y1="29.837" x2="14.0905" y2="11.834" gradientUnits="userSpaceOnUse">
<stop stop-color="#FEC158"/>
<stop offset="0.04" stop-color="#FEBC52"/>
<stop offset="0.24" stop-color="#FEA73B"/>
<stop offset="0.45" stop-color="#FE992A"/>
<stop offset="0.69" stop-color="#FE9021"/>
<stop offset="1" stop-color="#FE8E1E"/>
</linearGradient>
<linearGradient id="paint3_linear_77_169" x1="21.9098" y1="29.8366" x2="21.9098" y2="2.58679" gradientUnits="userSpaceOnUse">
<stop stop-color="#FEC158"/>
<stop offset="0.04" stop-color="#FEBC52"/>
<stop offset="0.24" stop-color="#FEA73B"/>
<stop offset="0.45" stop-color="#FE992A"/>
<stop offset="0.69" stop-color="#FE9021"/>
<stop offset="1" stop-color="#FE8E1E"/>
</linearGradient>
<linearGradient id="paint4_linear_77_169" x1="18.0004" y1="25.9297" x2="18.0004" y2="31.5186" gradientUnits="userSpaceOnUse">
<stop stop-color="#614E90"/>
<stop offset="0.99" stop-color="#33245C"/>
</linearGradient>
</defs>
</svg>
