<svg width="36" height="36" viewBox="0 0 36 36" fill="none" xmlns="http://www.w3.org/2000/svg">
<path d="M25.0197 25.9407C26.6897 24.2107 24.5397 19.4307 20.2097 15.2607C15.8897 11.0907 11.0297 9.11067 9.3697 10.8407C9.1797 11.0307 9.0497 11.2707 8.9597 11.5407L2.2097 29.8107C1.2397 32.3707 3.8097 34.8407 6.3297 33.7807L24.3497 26.3807C24.6097 26.2707 24.8397 26.1307 25.0297 25.9407H25.0197Z" fill="url(#paint0_linear_77_120)"/>
<mask id="mask0_77_120" style="mask-type:luminance" maskUnits="userSpaceOnUse" x="2" y="10" width="24" height="25">
<path d="M25.0197 25.9407C26.6897 24.2107 24.5397 19.4307 20.2097 15.2607C15.8897 11.0907 11.0297 9.11067 9.3697 10.8407C9.1797 11.0307 9.0497 11.2707 8.9597 11.5407L2.2097 29.8107C1.2397 32.3707 3.8097 34.8407 6.3297 33.7807L24.3497 26.3807C24.6097 26.2707 24.8397 26.1307 25.0297 25.9407H25.0197Z" fill="white"/>
</mask>
<g mask="url(#mask0_77_120)">
<path d="M6.36948 17.111C4.75948 16.491 3.47948 16.451 2.82948 17.111C1.33948 18.651 3.74948 23.401 8.20948 27.701C12.6695 32.001 17.4995 34.241 18.9895 32.701C19.6295 32.041 19.5495 30.801 18.9095 29.261C16.8195 28.461 14.1895 26.691 11.6695 24.261C9.10948 21.791 7.22948 19.181 6.36948 17.111Z" fill="url(#paint1_linear_77_120)"/>
</g>
<path d="M23.6354 24.4308C24.5747 23.4568 22.4904 19.923 18.9801 16.5378C15.4697 13.1526 11.8626 11.198 10.9233 12.172C9.98408 13.146 12.0684 16.6798 15.5787 20.0649C19.0891 23.4501 22.6962 25.4048 23.6354 24.4308Z" fill="url(#paint2_linear_77_120)"/>
<path d="M17.4995 2.25C17.4995 2.25 21.2595 7.86 15.9395 14.83" stroke="url(#paint3_linear_77_120)" stroke-width="2.5" stroke-linecap="round" stroke-linejoin="round"/>
<path d="M33.27 17.2105C33.27 17.2105 27.6 13.5405 20.71 18.9705" stroke="url(#paint4_linear_77_120)" stroke-width="2.5" stroke-linecap="round" stroke-linejoin="round"/>
<path d="M23.1119 1.29859L21.2002 2.46598C20.9645 2.6099 20.8901 2.91762 21.034 3.15329L22.2014 5.06504C22.3453 5.30072 22.653 5.37511 22.8887 5.23119L24.8005 4.0638C25.0361 3.91988 25.1105 3.61216 24.9666 3.37649L23.7992 1.46474C23.6553 1.22906 23.3476 1.15467 23.1119 1.29859Z" fill="url(#paint5_linear_77_120)"/>
<path d="M31.2127 9.84807L30.3059 11.8963C30.1941 12.1488 30.3082 12.4441 30.5607 12.5559L32.609 13.4627C32.8615 13.5745 33.1568 13.4604 33.2686 13.2079L34.1754 11.1597C34.2872 10.9072 34.1731 10.6119 33.9206 10.5001L31.8723 9.59329C31.6198 9.4815 31.3245 9.59557 31.2127 9.84807Z" fill="url(#paint6_linear_77_120)"/>
<path d="M12.8996 8.04141C14.0318 8.04141 14.9496 7.12359 14.9496 5.99141C14.9496 4.85922 14.0318 3.94141 12.8996 3.94141C11.7674 3.94141 10.8496 4.85922 10.8496 5.99141C10.8496 7.12359 11.7674 8.04141 12.8996 8.04141Z" fill="url(#paint7_linear_77_120)"/>
<path d="M29.6896 23.0512C30.8218 23.0512 31.7396 22.1334 31.7396 21.0012C31.7396 19.869 30.8218 18.9512 29.6896 18.9512C28.5575 18.9512 27.6396 19.869 27.6396 21.0012C27.6396 22.1334 28.5575 23.0512 29.6896 23.0512Z" fill="url(#paint8_linear_77_120)"/>
<path d="M27.1594 9.8608L28.1894 11.4108C28.5294 11.9208 28.0694 12.5808 27.4694 12.4408L25.6594 12.0108C25.4794 11.9708 25.2994 12.0108 25.1494 12.1008L23.5994 13.1308C23.0894 13.4708 22.4294 13.0108 22.5694 12.4108L22.9994 10.6008C23.0394 10.4208 22.9994 10.2408 22.9094 10.0908L21.8794 8.5408C21.5394 8.0308 21.9994 7.3708 22.5994 7.5108L24.4094 7.9408C24.5894 7.9808 24.7694 7.9408 24.9194 7.8508L26.4694 6.8208C26.9794 6.4808 27.6394 6.9408 27.4994 7.5408L27.0694 9.3508C27.0294 9.5308 27.0694 9.7108 27.1594 9.8608Z" fill="url(#paint9_linear_77_120)"/>
<defs>
<linearGradient id="paint0_linear_77_120" x1="13.7852" y1="10.2203" x2="13.7933" y2="34.0395" gradientUnits="userSpaceOnUse">
<stop stop-color="#FD8179"/>
<stop offset="1" stop-color="#F53B3B"/>
</linearGradient>
<linearGradient id="paint1_linear_77_120" x1="10.913" y1="12.9107" x2="10.9135" y2="33.1939" gradientUnits="userSpaceOnUse">
<stop stop-color="#FEAE68"/>
<stop offset="0.99" stop-color="#FD882B"/>
</linearGradient>
<linearGradient id="paint2_linear_77_120" x1="17.2587" y1="13.1079" x2="15.1002" y2="23.0594" gradientUnits="userSpaceOnUse">
<stop stop-color="#614E90"/>
<stop offset="0.99" stop-color="#33245C"/>
</linearGradient>
<linearGradient id="paint3_linear_77_120" x1="17.3636" y1="1.00189" x2="17.3657" y2="16.0838" gradientUnits="userSpaceOnUse">
<stop stop-color="#FE9158"/>
<stop offset="0.04" stop-color="#FE8B52"/>
<stop offset="0.24" stop-color="#FE773B"/>
<stop offset="0.45" stop-color="#FE682A"/>
<stop offset="0.69" stop-color="#FE5F21"/>
<stop offset="1" stop-color="#FE5D1E"/>
</linearGradient>
<linearGradient id="paint4_linear_77_120" x1="32" y1="13.8005" x2="22" y2="22.3805" gradientUnits="userSpaceOnUse">
<stop stop-color="#FEC158"/>
<stop offset="0.04" stop-color="#FEBC52"/>
<stop offset="0.24" stop-color="#FEA73B"/>
<stop offset="0.45" stop-color="#FE992A"/>
<stop offset="0.69" stop-color="#FE9021"/>
<stop offset="1" stop-color="#FE8E1E"/>
</linearGradient>
<linearGradient id="paint5_linear_77_120" x1="23.0119" y1="1.23076" x2="23.0077" y2="5.31087" gradientUnits="userSpaceOnUse">
<stop stop-color="#FEC158"/>
<stop offset="0.04" stop-color="#FEBC52"/>
<stop offset="0.24" stop-color="#FEA73B"/>
<stop offset="0.45" stop-color="#FE992A"/>
<stop offset="0.69" stop-color="#FE9021"/>
<stop offset="1" stop-color="#FE8E1E"/>
</linearGradient>
<linearGradient id="paint6_linear_77_120" x1="32.2459" y1="9.53995" x2="32.2435" y2="13.4978" gradientUnits="userSpaceOnUse">
<stop stop-color="#58BEFE"/>
<stop offset="0.03" stop-color="#53B7FE"/>
<stop offset="0.19" stop-color="#4099FE"/>
<stop offset="0.36" stop-color="#3182FE"/>
<stop offset="0.54" stop-color="#2671FE"/>
<stop offset="0.74" stop-color="#2068FE"/>
<stop offset="1" stop-color="#1E65FE"/>
</linearGradient>
<linearGradient id="paint7_linear_77_120" x1="12.9066" y1="3.95127" x2="12.9033" y2="8.04086" gradientUnits="userSpaceOnUse">
<stop stop-color="#61DFFE"/>
<stop offset="0.03" stop-color="#5CDAFD"/>
<stop offset="0.23" stop-color="#45C5FD"/>
<stop offset="0.45" stop-color="#34B6FC"/>
<stop offset="0.69" stop-color="#2BADFC"/>
<stop offset="1" stop-color="#28ABFC"/>
</linearGradient>
<linearGradient id="paint8_linear_77_120" x1="29.6793" y1="18.9498" x2="29.6821" y2="23.0437" gradientUnits="userSpaceOnUse">
<stop stop-color="#FE7361"/>
<stop offset="0.13" stop-color="#FD5C4F"/>
<stop offset="0.31" stop-color="#FC453E"/>
<stop offset="0.51" stop-color="#FC3431"/>
<stop offset="0.72" stop-color="#FC2B2A"/>
<stop offset="1" stop-color="#FC2828"/>
</linearGradient>
<linearGradient id="paint9_linear_77_120" x1="25.0346" y1="6.69437" x2="25.0352" y2="13.2362" gradientUnits="userSpaceOnUse">
<stop stop-color="#FEE058"/>
<stop offset="0.04" stop-color="#FEDA52"/>
<stop offset="0.24" stop-color="#FEC43B"/>
<stop offset="0.45" stop-color="#FEB42A"/>
<stop offset="0.69" stop-color="#FEAA21"/>
<stop offset="1" stop-color="#FEA81E"/>
</linearGradient>
</defs>
</svg>
