<svg width="36" height="36" viewBox="0 0 36 36" fill="none" xmlns="http://www.w3.org/2000/svg">
<path d="M13.8467 7.63387L4.64804 23.5661C2.80639 26.7602 5.10845 30.76 8.80134 30.76H27.1987C30.8916 30.76 33.1936 26.7602 31.352 23.5661L22.1533 7.63387C20.3117 4.43975 15.6883 4.43975 13.8467 7.63387Z" fill="url(#paint0_linear_77_138)"/>
<path d="M18.0094 21.791C17.2996 21.791 16.7145 21.225 16.6857 20.5057L16.4555 13.1199C16.4363 12.3717 17.031 11.7578 17.7792 11.7578H18.2109C18.959 11.7578 19.5537 12.3717 19.5345 13.1199L19.3331 20.5057C19.3139 21.225 18.7288 21.791 18.0094 21.791Z" fill="white"/>
<path d="M19.5826 24.9996C19.5826 24.1228 18.8719 23.4121 17.9952 23.4121C17.1184 23.4121 16.4077 24.1228 16.4077 24.9996C16.4077 25.8763 17.1184 26.587 17.9952 26.587C18.8719 26.587 19.5826 25.8763 19.5826 24.9996Z" fill="white"/>
<defs>
<linearGradient id="paint0_linear_77_138" x1="18" y1="5.23588" x2="18" y2="30.76" gradientUnits="userSpaceOnUse">
<stop stop-color="#FD8179"/>
<stop offset="1" stop-color="#F53B3B"/>
</linearGradient>
</defs>
</svg>
